<svg width="52" height="50" viewBox="0 0 52 50" fill="none" xmlns="http://www.w3.org/2000/svg">
<g clip-path="url(#clip0_138_367)">
<path d="M25.6352 0.00170955C11.4774 0.00170955 0 11.4791 0 25.6369C0 36.8937 7.25669 46.4582 17.3477 49.9028L17.5289 49.9558C18.811 50.1968 19.2811 49.4053 19.2811 48.7233C19.2811 48.1147 19.2606 46.5009 19.2486 44.3658C12.1184 45.9129 10.6141 40.9264 10.6141 40.9264C10.1218 39.3451 9.11317 38.0459 7.78834 37.1929L7.76098 37.1775C5.43953 35.5877 7.94048 35.6202 7.94048 35.6202C9.62772 35.8578 11.0415 36.8476 11.8535 38.2357L11.8671 38.2613C12.8142 39.9622 14.6023 41.0939 16.6553 41.0939C17.64 41.0939 18.5631 40.8341 19.3597 40.3776L19.3324 40.3913C19.4555 39.0391 20.0521 37.8459 20.9547 36.9638L20.9564 36.9621C15.2638 36.3211 9.27899 34.1159 9.27899 24.295C9.27899 24.2488 9.27728 24.1958 9.27728 24.1428C9.27728 21.5427 10.2807 19.1768 11.9218 17.4109L11.9167 17.4178C11.5697 16.4912 11.368 15.4211 11.368 14.3048C11.368 12.9766 11.6517 11.7133 12.1629 10.5748L12.1389 10.6329C12.1389 10.6329 14.286 9.94568 19.1888 13.2603C21.1102 12.7116 23.3171 12.3954 25.5976 12.3954C27.878 12.3954 30.0849 12.7116 32.1773 13.3014L32.0064 13.2603C36.8766 9.94568 39.0237 10.6329 39.0237 10.6329C39.5109 11.7304 39.7947 13.0091 39.7947 14.3544C39.7947 15.4519 39.6067 16.5049 39.2596 17.4827L39.2802 17.4178C40.9093 19.1819 41.9093 21.5478 41.9093 24.1479C41.9093 24.2009 41.9093 24.2522 41.9076 24.3035V24.295C41.9076 34.1432 35.9159 36.3108 30.2114 36.9416C31.2918 38.0476 31.9585 39.5605 31.9585 41.2307C31.9585 41.3896 31.9517 41.5486 31.9397 41.7059L31.9414 41.6854C31.9414 45.1163 31.9089 47.8719 31.9089 48.7044C31.9089 49.378 32.3568 50.178 33.6714 49.9216C43.9761 46.4531 51.2652 36.8801 51.2652 25.6027C51.2652 11.462 39.8015 0 25.6625 0C25.6523 0 25.6403 0 25.6301 0H25.6318L25.6352 0.00170955Z" fill="black"/>
</g>
<defs>
<clipPath id="clip0_138_367">
<rect width="51.2652" height="50" fill="white"/>
</clipPath>
</defs>
</svg>
