<svg width="50" height="50" viewBox="0 0 50 50" fill="none" xmlns="http://www.w3.org/2000/svg">
<g clip-path="url(#clip0_138_361)">
<path d="M42.1781 42.1782H34.8439V30.69C34.8439 27.951 34.7944 24.4242 31.0282 24.4242C27.2085 24.4242 26.6228 27.4107 26.6228 30.4879V42.1782H19.2885V18.5543H26.3299V21.7842H26.4289C27.8644 19.3339 30.5374 17.8654 33.3754 17.9685C40.8086 17.9685 42.1822 22.8567 42.1822 29.2215L42.1781 42.174V42.1782ZM11.0138 15.3244C9.8871 15.319 8.80809 14.8693 8.01103 14.073C7.21398 13.2768 6.76326 12.1982 6.75675 11.0716C6.75675 8.7368 8.679 6.81456 11.0138 6.81456C13.3485 6.81456 15.2666 8.7368 15.2707 11.0716C15.2707 13.4063 13.3485 15.3244 11.0138 15.3244ZM14.6809 42.1782H7.33838V18.5543H14.6809V42.1782ZM45.8287 6.13108e-05H3.65062C2.69425 -0.00549353 1.77432 0.366607 1.09075 1.0355C0.407174 1.7044 0.0151992 2.61603 0 3.57231V45.9278C0.0151992 46.884 0.407174 47.7957 1.09075 48.4646C1.77432 49.1335 2.69425 49.5056 3.65062 49.5H45.8329C46.7915 49.5078 47.7144 49.1369 48.401 48.468C49.0877 47.7991 49.4826 46.8862 49.5 45.9278V3.56818C49.4826 2.61047 49.0874 1.69844 48.4005 1.03085C47.7136 0.363262 46.7907 -0.00576779 45.8329 0.00418601L45.8287 6.13108e-05Z" fill="#0A66C2"/>
</g>
<defs>
<clipPath id="clip0_138_361">
<rect width="49.5" height="49.5001" fill="white"/>
</clipPath>
</defs>
</svg>
