<svg width="50" height="50" viewBox="0 0 50 50" fill="none" xmlns="http://www.w3.org/2000/svg">
<g clip-path="url(#clip0_441_351)">
<path d="M11.5186 0.0830688H38.4814C44.8167 0.0830688 49.9169 5.18331 49.9169 11.5186V38.4814C49.9169 44.8167 44.8167 49.9169 38.4814 49.9169H11.5186C5.18332 49.9169 0.0830612 44.8167 0.0830612 38.4814V11.5186C0.0830612 5.18331 5.18332 0.0830688 11.5186 0.0830688Z" fill="url(#paint0_linear_441_351)"/>
<path d="M11.0015 14.2545C10.7389 14.2545 10.4916 14.2998 10.2575 14.393L14.9467 19.2206L19.6878 24.1348L19.7744 24.2386L19.9128 24.3771L20.0512 24.5155L20.3281 24.8096L24.3944 28.9798C24.4621 29.0218 24.6583 29.2036 24.8116 29.2802C25.009 29.3789 25.223 29.4699 25.4436 29.4777C25.6817 29.4863 25.925 29.4181 26.1392 29.3139C26.2996 29.2358 26.3709 29.124 26.5573 28.9798L31.2638 24.1175L36.0223 19.2206L40.6077 14.4968C40.3133 14.3373 39.9873 14.2545 39.6387 14.2545H11.0015ZM9.56533 14.8429C9.06527 15.3167 8.75207 16.029 8.75207 16.8328V32.6827C8.75207 33.3335 8.96109 33.9247 9.30578 34.3784L9.96331 33.7555L14.8602 28.9971L19.2033 24.7923L19.1168 24.6885L14.3584 19.7916L9.59994 14.8775L9.56533 14.8429ZM41.2306 14.9986L36.5933 19.7916L31.8522 24.6885L31.7656 24.775L36.2818 29.1528L41.1787 33.9112L41.4729 34.1881C41.7365 33.7651 41.8881 33.2439 41.8881 32.6827V16.8328C41.8881 16.1161 41.6398 15.4662 41.2306 14.9986ZM19.7571 25.3634L15.4312 29.5681L10.517 34.3265L9.89409 34.9321C10.2225 35.1436 10.5962 35.2782 11.0015 35.2782H39.6387C40.1259 35.2782 40.5679 35.0908 40.9365 34.7937L40.625 34.4823L35.7108 29.7238L31.1946 25.3634L27.1283 29.5508C26.9082 29.6967 26.7612 29.8585 26.5463 29.9579C26.2004 30.1178 25.8214 30.2531 25.4404 30.2473C25.0584 30.2414 24.6838 30.0919 24.3409 29.9233C24.1689 29.8386 24.0771 29.7545 23.8753 29.5854L19.7571 25.3634Z" fill="white"/>
</g>
<defs>
<linearGradient id="paint0_linear_441_351" x1="25.3489" y1="49.7169" x2="25.3974" y2="0.684681" gradientUnits="userSpaceOnUse">
<stop stop-color="#70EFFF"/>
<stop offset="1" stop-color="#5770FF"/>
</linearGradient>
<clipPath id="clip0_441_351">
<rect width="50" height="50" fill="white"/>
</clipPath>
</defs>
</svg>
